<?xml version="1.0" encoding="UTF-8"?>
<svg width="100px" height="36px" viewBox="0 0 100 36" version="1.1" xmlns="http://www.w3.org/2000/svg" xmlns:xlink="http://www.w3.org/1999/xlink">
    <!-- Generator: Sketch 52.5 (67469) - http://www.bohemiancoding.com/sketch -->
    <title>paid-logo-black copy</title>
    <desc>Created with Sketch.</desc>
    <g id="Case-Studies" stroke="none" stroke-width="1" fill="none" fill-rule="evenodd">
        <g id="Customer-Story---Template" transform="translate(-135.000000, -38.000000)">
            <g id="paid-logo-black-copy" transform="translate(135.000000, 38.000000)">
                <polyline id="Fill-1" fill="#2D2F30" points="81.7106774 7.11825488 81.7118255 7.11825488 81.7106774 7.11825488"></polyline>
                <path d="M86.9115959,19.8163031 C86.4523536,20.6773823 85.8712974,21.3513203 85.1159587,21.8438576 C84.358209,22.3375431 83.5533869,22.5809414 82.7198622,22.5809414 C81.5442021,22.5809414 80.5487945,22.2514351 79.7405281,21.586682 C79.7324914,21.5822044 79.7233065,21.5740528 79.7152698,21.5683123 C79.5579793,21.4431688 79.4064294,21.2985075 79.2652124,21.1435132 C78.3811711,20.1836969 77.9391504,18.9586682 77.9391504,17.4684271 C77.9391504,16.7761194 78.0413318,16.119403 78.2491389,15.4982778 C78.2491389,15.4959816 78.2491389,15.4959816 78.2514351,15.4925373 C78.2514351,15.4822044 78.2537313,15.4718714 78.2594719,15.4615385 C78.4741676,14.8289323 78.7841561,14.2755454 79.1882893,13.7956372 C79.5924225,13.315729 80.0665901,12.9299656 80.6096441,12.6383467 C81.152698,12.3501722 81.7508611,12.2032147 82.4074627,12.2032147 C83.3167623,12.2032147 84.1940299,12.5258324 85.0413318,13.1687715 C85.8564868,13.793341 86.4580941,14.5820896 86.8381171,15.5476464 L86.8576349,15.5579793 L86.9115959,15.6498278 L86.9115959,19.8163031 Z M58.6681975,20.6498278 C58.6681975,21.1561424 58.3823192,21.6360505 57.8002296,22.0895522 C57.3960964,22.467279 56.8874856,22.771527 56.2709529,23 C55.652124,23.2261768 55.0160735,23.3409874 54.3605052,23.3409874 C53.4994259,23.3409874 52.7944891,23.1079219 52.2376579,22.6383467 C51.6819747,22.1710677 51.4041332,21.5729047 51.4041332,20.8381171 C51.4041332,20.0332951 51.7646383,19.3742824 52.4856487,18.8714122 C53.2043628,18.3650976 54.119403,18.1125144 55.2319173,18.1125144 C55.7623421,18.1125144 56.3306544,18.1710677 56.9506315,18.2835821 C57.5671642,18.3962113 58.0941447,18.5533869 58.6681975,18.7554535 L58.6681975,20.6498278 Z M39.9712974,19.3065442 C39.7566016,19.9494834 39.4466131,20.5120551 39.043628,20.9919633 C38.6394948,21.4718714 38.1653272,21.8564868 37.6222732,22.1469575 C37.0792193,22.4374282 36.4799082,22.5820896 35.8231917,22.5820896 C34.8886338,22.5820896 34.0063146,22.2411022 33.1854191,21.5602755 C32.3645235,20.8783008 31.8025258,20.0322618 31.3432836,19.021814 L31.3432836,14.9311137 C31.8025258,14.097589 32.3714122,13.435132 33.1291619,12.9425947 C33.8869116,12.4500574 34.6850746,12.2032147 35.5174512,12.2032147 C36.2246843,12.2032147 36.8701493,12.3306544 37.4510907,12.5820896 C38.0320321,12.8346728 38.530884,13.1882893 38.9476464,13.6429392 C39.3644087,14.097589 39.6931114,14.6349024 39.9330654,15.2525832 C40.1730195,15.8725603 40.2926521,16.5476464 40.2926521,17.2789897 C40.2926521,17.9862227 40.1859931,18.6624569 39.9712974,19.3065442 Z M94.2365098,24.7588978 C93.3203215,23.4580941 93.0241102,22.2881745 92.9977038,21.6970149 C92.9919633,21.5924225 92.9965557,21.5063146 92.9965557,21.4328358 L92.9965557,0.114810563 L86.7967853,0.114810563 L86.7967853,10.6888634 C86.2227325,9.57749713 85.3421355,8.67738232 84.2055109,8.0206659 C83.423651,7.56946039 82.6016073,7.347876 81.7118255,7.11825488 L81.7106774,7.11825488 C81.3088404,7.11825488 80.8989667,7.03673938 80.4741676,7.03673938 C79.1859931,7.03673938 78.0068886,7.30998852 76.9334099,7.84041332 C75.8599311,8.36969001 74.9322618,9.10045924 74.1504018,10.02124 C73.3650976,10.9420207 72.7623421,12.0382319 72.3352468,13.3 C72.2467279,13.56062 72.2158439,13.8254879 72.1010333,14.0929966 L72.1010333,7.46268657 L66.0160735,7.46268657 L66.0160735,24.7818599 C65.097589,23.4695752 64.7898967,22.2904707 64.7634902,21.6980482 C64.7370838,21.1067738 64.7531573,21.1067738 64.7531573,20.5005741 L64.7531573,15.3846154 C64.7531573,12.6590126 63.9253731,10.5889782 62.2835821,9.17221584 C60.6406429,7.76119403 58.315729,7.05281286 55.3088404,7.05281286 C53.7198622,7.05281286 52.2146958,7.26750861 50.8013777,7.6946039 C49.3869116,8.12514351 47.4603904,9.15384615 46.1492537,10.0114811 L47.9288175,13.8002296 C49.0126292,13.0688863 50.6096441,12.1343284 51.5958668,11.7669346 C52.5797933,11.401837 53.6073479,11.2181401 54.6934558,11.2181401 C57.3467279,11.2181401 58.6681975,12.3673938 58.6681975,14.6659013 L58.6681975,15.576349 C58.0941447,15.2973594 57.4087256,15.0884041 56.6280138,14.9494834 C55.8427095,14.8128588 55.0378875,14.7416762 54.2055109,14.7416762 C52.9425947,14.7416762 51.7944891,14.9070034 50.761194,15.2353617 C49.7244546,15.5625718 48.8300804,16.0172216 48.0711825,16.5970149 C47.4029851,17.1113662 46.8668197,17.7129736 46.4661309,18.4029851 C46.4913892,18.0482204 46.5051665,17.6854191 46.5051665,17.3168772 C46.5051665,15.8783008 46.272101,14.532721 45.804822,13.2835821 C45.3375431,12.0332951 44.6934558,10.9471871 43.8725603,10.0252583 C43.0516648,9.10447761 42.0734788,8.37772675 40.9368542,7.84730195 C39.8013777,7.31687715 38.5637199,7.05166475 37.2250287,7.05166475 C35.7095293,7.05166475 34.4035591,7.36854191 33.3185993,7.99885189 C32.2324914,8.63030999 31.5729047,9.36854191 31.3432836,9.60160735 L31.3432836,7.46268657 L25.2583238,7.46268657 L25.2583238,35.3616533 L31.3432836,35.3616533 L31.3432836,24.097589 C32.032147,25.2342135 32.8513203,26.1182549 33.9626866,26.7486797 C35.0729047,27.3801378 36.3888634,27.6958668 37.9043628,27.6958668 C39.1408726,27.6958668 40.2857635,27.4305396 41.3339839,26.9012629 C42.3810563,26.3708381 43.29093,25.6440873 44.0613088,24.7221584 C44.7432836,23.9081515 45.2912744,22.9586682 45.7057405,21.8771527 C45.7585534,22.5912744 45.9275545,23.2652124 46.215729,23.8897819 C46.5693456,24.6613088 47.0492537,25.3295063 47.6554535,25.8966705 C48.2616533,26.4661309 48.9885189,26.9070034 49.8335247,27.2215844 C50.6785304,27.5384615 51.5958668,27.6958668 52.5797933,27.6958668 C53.9437428,27.6958668 55.2376579,27.391504 56.4626866,26.7864524 C57.4098737,26.3191734 58.2514351,25.6888634 58.9942595,24.9047072 C58.9942595,24.9047072 59.1905855,25.9184845 60.1239954,26.5832377 C60.9288175,27.0987371 62.0332951,27.2962113 64.7979334,27.2962113 C65.075775,27.2962113 72.1010333,27.2973594 72.1010333,27.2973594 L72.1010333,20.5499426 C72.2158439,20.8610792 72.2812859,21.1664753 72.3938002,21.4638347 C72.858783,22.7152698 73.5063146,23.8071183 74.3409874,24.7405281 C75.1469575,25.6429392 76.1377727,26.3673938 77.2296211,26.8840413 C77.3845006,26.9575201 77.5384615,27.0229621 77.695752,27.0861079 C77.7474168,27.1067738 77.8002296,27.130884 77.8530425,27.1492537 C78.4845006,27.3903559 79.1458094,27.5579793 79.8197474,27.6394948 C79.9517796,27.6555683 80.0803674,27.6681975 80.2112514,27.6762342 C80.3995408,27.6923077 80.5889782,27.6969001 80.783008,27.6969001 C82.1469575,27.6969001 83.4407577,27.3926521 84.6657865,26.7864524 C85.6129736,26.3203215 86.454535,25.6900115 87.1974742,24.9058553 C87.1974742,24.9058553 87.4121699,25.4649828 87.4489093,25.5281286 C87.6119403,25.8576349 87.8932262,26.2617681 88.3444317,26.5843858 C88.4328358,26.6429392 88.5246843,26.6946039 88.6222732,26.7451206 C88.6554535,26.7634902 88.6900115,26.7841561 88.7244546,26.8002296 C88.7267509,26.8025258 88.7267509,26.8174512 88.7290471,26.8174512 C89.3983927,27.1710677 90.075775,27.3249139 91.1538462,27.3249139 L94.2594719,27.3249139 L94.2594719,24.7921929 C94.2537313,24.7841561 94.2411022,24.7669346 94.2365098,24.7588978 Z" id="Fill-2" fill="#33353A"></path>
                <polygon id="Fill-3" fill="#33353A" points="66.0346728 5.85063146 72.0952928 5.85063146 72.0952928 0.108266361 66.0346728 0.108266361"></polygon>
                <path d="M13.215155,15.8438576 L9.95407577,15.8438576 L10.7057405,12.6291619 L13.9668197,12.6291619 L13.215155,15.8438576 Z M24.2250287,12.6291619 L24.2250287,7.46268657 L20.2726751,7.46268657 L21.9621125,0.114810563 L16.8374282,0.114810563 L15.1479908,7.46268657 L11.8869116,7.46268657 L13.576349,0.114810563 L8.45166475,0.114810563 L6.76222732,7.46268657 L1.72215844,7.46268657 L1.72215844,12.6291619 L5.58105626,12.6291619 L4.8293915,15.8438576 L0,15.8438576 L0,21.010333 L3.64810563,21.010333 L2.18277842,27.3249139 L7.30746269,27.3249139 L8.7727899,21.010333 L12.0339839,21.010333 L10.5685419,27.3249139 L15.6932262,27.3249139 L17.1586682,21.010333 L22.5028703,21.010333 L22.5028703,15.8438576 L18.3398393,15.8438576 L19.091504,12.6291619 L24.2250287,12.6291619 Z" id="Fill-4" fill="#33353A"></path>
                <polyline id="Fill-5" fill="#33353A" points="95.5244546 25.5207807 95.5244546 25.1115959 97.3378875 25.1115959 97.3378875 25.5207807 96.6745121 25.5207807 96.6745121 27.3249139 96.1878301 27.3249139 96.1878301 25.5207807 95.5244546 25.5207807"></polyline>
                <polyline id="Fill-6" fill="#33353A" points="98.2771527 25.1115959 98.7948335 26.6336395 98.8009185 26.6336395 99.2908152 25.1115959 99.9758898 25.1115959 99.9758898 27.3249139 99.5202067 27.3249139 99.5202067 25.756372 99.5138921 25.756372 98.971527 27.3249139 98.5964409 27.3249139 98.053961 25.7718714 98.0477612 25.7718714 98.0477612 27.3249139 97.5920781 27.3249139 97.5920781 25.1115959 98.2771527 25.1115959"></polyline>
            </g>
        </g>
    </g>
</svg>